<svg xmlns="http://www.w3.org/2000/svg" fill="none" viewBox="0 0 13 13">
    <g fill="#B4B8CD" clip-path="url(#a)">
        <path d="M12.498 8.624c0 .33-.118.645-.33.878a1.08 1.08 0 0 1-.798.364H2.003c-.389 0-.765.413-.765.827s.376.828.765.828h8.934a.36.36 0 0 0 .266-.121.437.437 0 0 0 .11-.293v-.414h.008c.256 0 .51-.058.745-.17v.584c0 .33-.12.645-.33.878a1.079 1.079 0 0 1-.799.363H2.392c-1.892 0-1.892-1.655-1.892-1.655V2.215c0-.995.989-1.867 1.892-1.867h8.979c.148 0 .295.032.432.095.137.062.261.153.366.269.105.115.188.252.245.402.056.151.085.312.085.476v2.069H9.867a1.085 1.085 0 0 0-.772.379 1.31 1.31 0 0 0-.317.862c0 .321.114.63.317.862.203.232.48.367.772.379h2.633v2.483Z"/>
        <path d="M9.488 4.9c0-.164.044-.324.127-.46a.773.773 0 0 1 .338-.305.69.69 0 0 1 .435-.047c.146.032.28.11.385.226a.857.857 0 0 1 .206.424c.029.16.014.327-.043.479a.817.817 0 0 1-.277.371.705.705 0 0 1-.418.14.72.72 0 0 1-.532-.243.872.872 0 0 1-.22-.585ZM10.651 11.107H2.377v-.828h8.274v.828Z"/>
    </g>
    <defs>
        <clipPath id="a">
            <path fill="#fff" d="M0 0h12v12H0z" transform="matrix(1 0 0 -1 .497 12.348)"/>
        </clipPath>
    </defs>
</svg>