<svg xmlns="http://www.w3.org/2000/svg" viewBox="0 0 656.03278 304.01779"><defs><style>.a{fill:none;}.b{fill:#fff;fill-rule:evenodd;}</style></defs><rect class="a" width="656.03278" height="304.01779"/><path class="b" d="M390.61368,185.48745a7.78829,7.78829,0,0,1,2.68213,6.2603q0,10.13334-11.7251,10.13413H314.402a9.37256,9.37256,0,0,1-9.92688-8.7824,9.08025,9.08025,0,0,1-.00913-.9555,12.55821,12.55821,0,0,1,3.9744-9.14052l55.4436-59.61761H320.95947a11.77983,11.77983,0,0,1-7.8482-2.28437,8.02568,8.02568,0,0,1-2.68363-6.45993q0-9.93678,11.72357-9.936h64.1894a9.44322,9.44322,0,0,1,7.2539,2.88173,9.72016,9.72016,0,0,1,2.68207,6.85617,13.68976,13.68976,0,0,1-3.97439,9.33863l-55.247,59.41949h45.70867a11.82565,11.82565,0,0,1,7.84977,2.28589"/><path class="b" d="M490.17407,155.47871a7.92026,7.92026,0,0,1-5.86258,2.28436h-59.0202a28.61553,28.61553,0,0,0,7.452,19.87355,26.41843,26.41843,0,0,0,19.37521,6.75863,44.1107,44.1107,0,0,0,12.61966-1.69,48.05215,48.05215,0,0,0,11.22833-5.06865,10.519,10.519,0,0,1,4.968-1.38981,6.24519,6.24519,0,0,1,5.2652,2.484,9.74574,9.74574,0,0,1,1.88964,6.06067,11.52439,11.52439,0,0,1-4.96951,9.53978,44.9775,44.9775,0,0,1-14.2091,6.556,65.172,65.172,0,0,1-18.38166,2.583,55.06675,55.06675,0,0,1-26.03323-5.8595,41.49855,41.49855,0,0,1-17.19-16.59558,50.02872,50.02872,0,0,1-6.0622-25.03967,60.73063,60.73063,0,0,1,6.16126-27.72024,46.37358,46.37358,0,0,1,17.289-19.07808,47.49569,47.49569,0,0,1,25.43744-6.85767,40.17766,40.17766,0,0,1,31.3,12.12437A49.6059,49.6059,0,0,1,492.46,149.02032a8.73524,8.73524,0,0,1-2.28589,6.45841m-64.08877-11.02867h45.30941a26.845,26.845,0,0,0-5.16775-18.38317,18.82128,18.82128,0,0,0-15.10208-6.25876q-21.06684,0-25.03967,24.64191"/><path class="b" d="M592.45813,111.16471a36.47213,36.47213,0,0,1,8.44568,26.1308q0,3.77859-.19812,5.765l-3.976,48.08908a12.34219,12.34219,0,0,1-3.9729,8.7443,13.27741,13.27741,0,0,1-9.142,3.182,12.0997,12.0997,0,0,1-8.94245-3.182,10.64506,10.64506,0,0,1-2.78265-8.7443l3.97589-47.09549q1.58643-22.06112-17.49011-22.06189a22.318,22.318,0,0,0-17.09082,6.56051,29.47267,29.47267,0,0,0-7.15332,18.28257l-3.77637,44.3143a12.34223,12.34223,0,0,1-3.9729,8.7443,13.27481,13.27481,0,0,1-9.14209,3.182,11.75108,11.75108,0,0,1-8.84332-3.182,11.402,11.402,0,0,1-2.88178-8.7443l6.3609-77.10466a10.65322,10.65322,0,0,1,3.9729-8.246,14.309,14.309,0,0,1,9.34015-3.08138,11.30227,11.30227,0,0,1,8.34662,2.97928,9.0965,9.0965,0,0,1,2.38342,7.95186l-.19812,3.77324a33.29157,33.29157,0,0,1,13.313-11.1262,42.91719,42.91719,0,0,1,18.68341-3.97592,32.64591,32.64591,0,0,1,24.741,8.84487"/><path class="b" d="M239.663,111.33143a28.06608,28.06608,0,0,0-35.916-9.91162,27.66578,27.66578,0,0,0,7.72176,51.91718A59.49354,59.49354,0,0,1,92.514,151.99442a58.62166,58.62166,0,0,1,38.2978-55.12354A9.38348,9.38348,0,0,0,136.781,86.02355l-.06707-.29564a9.34212,9.34212,0,0,1,7.06473-11.16424l.0002-.00005a9.58455,9.58455,0,0,1,1.24657-.19354q3.47228-.31776,6.98263-.32a79.49849,79.49849,0,0,1,8.66355.47547A9.4714,9.4714,0,0,0,171.11655,66.14l.00006-.00057c.01829-.1722.03352-.34289.04115-.51357a9.729,9.729,0,0,0-8.9104-9.9604,96.88315,96.88315,0,1,0,86.64142,96.34275c0-9.47122-1.90491-29.89034-9.22586-40.67669"/><path class="b" d="M188.54889,62.484a10.03583,10.03583,0,1,1-10.03508,10.03658V72.5191A10.036,10.036,0,0,1,188.54889,62.484"/></svg>