<svg viewBox="0 0 22 22" fill="none" xmlns="http://www.w3.org/2000/svg">
    <path fill-rule="evenodd" clip-rule="evenodd" d="M11.0612 21.0833C16.6776 21.0833 21.2307 16.5302 21.2307 10.9137C21.2307 5.29721 16.6776 0.744141 11.0612 0.744141C5.44467 0.744141 0.891602 5.29721 0.891602 10.9137C0.891602 16.5302 5.44467 21.0833 11.0612 21.0833ZM6.81543 10.6896C6.81543 8.16957 8.57943 6.39357 11.0994 6.39357C13.1154 6.39357 14.5794 7.42557 15.0234 9.15357H12.7554C12.4434 8.58957 11.8674 8.28957 11.0994 8.28957C9.77943 8.28957 8.90343 9.22557 8.90343 10.6896C8.90343 12.2496 9.79143 13.1616 11.2674 13.1616C12.2874 13.1616 12.9954 12.6216 13.3074 11.6736H10.7034V10.1616H15.1674V12.0696C14.7354 13.5216 13.3314 14.9736 11.1114 14.9736C8.59143 14.9736 6.81543 13.2096 6.81543 10.6896Z" fill="#FFDDA6"/>
</svg>
