<svg width="164" height="41" viewBox="0 0 164 41" fill="none" xmlns="http://www.w3.org/2000/svg">
<path d="M44.7619 10.6287V23.958L50.6958 17.3846H54.7526V17.5672L47.8499 24.9318L55.7214 33.2093V33.4528H51.604L44.7619 26.0273V33.4528H41.3711V10.6287H44.7619Z" fill="#FFCB77"/>
<path d="M59.5966 26.636C59.8994 29.0706 61.8975 30.6531 64.8039 30.6531C66.4387 30.6531 68.4974 30.0444 69.4662 28.9489L71.646 31.0791C70.0112 32.905 67.2259 33.818 64.7433 33.818C59.4755 33.818 56.0847 30.4705 56.0847 25.297C56.0847 20.4278 59.4755 16.8977 64.5011 16.8977C69.5268 16.8977 73.1598 20.0627 72.5543 26.636H59.5966ZM69.3451 23.8362C69.1635 21.2799 67.2864 19.9409 64.6222 19.9409C62.2002 19.9409 60.2021 21.2799 59.6572 23.8362H69.3451Z" fill="#FFCB77"/>
<path d="M90.7797 17.3845L80.6679 40.939H76.9744L80.3046 33.2701L73.8864 17.4454H77.7615L80.5468 25.0534L82.1211 29.6183L83.8165 25.1143L87.0257 17.4454H90.7797V17.3845Z" fill="#FFCB77"/>
<path d="M109.066 10.6287V33.4528H105.917L105.736 30.8965C104.464 32.9659 102.345 33.7571 100.165 33.7571C95.5026 33.7571 91.9907 30.7139 91.9907 25.3578C91.9907 20.0018 95.4421 16.9586 100.104 16.9586C102.042 16.9586 104.706 17.9324 105.736 19.8192V10.6287H109.066ZM95.321 25.4187C95.321 28.6445 97.5613 30.653 100.407 30.653C103.253 30.653 105.493 28.5837 105.493 25.4187C105.493 22.2538 103.192 20.1844 100.407 20.1844C97.5613 20.1844 95.321 22.0712 95.321 25.4187Z" fill="white"/>
<path d="M116.695 17.3847L116.937 19.515C118.088 17.4456 119.904 17.0195 121.66 17.0195C123.234 17.0195 124.688 17.5673 125.596 18.4194L124.082 21.3409C123.295 20.6714 122.508 20.3671 121.236 20.3671C118.935 20.3671 116.937 21.8278 116.937 24.7493V33.4529H113.607V17.3847H116.695Z" fill="white"/>
<path d="M142.974 25.4188C142.974 30.1662 139.704 33.7572 134.678 33.7572C129.653 33.7572 126.443 30.1662 126.443 25.4188C126.443 20.6714 129.713 17.0195 134.678 17.0195C139.643 17.0195 142.974 20.6714 142.974 25.4188ZM129.774 25.4188C129.774 28.2794 131.651 30.6531 134.678 30.6531C137.706 30.6531 139.583 28.2794 139.583 25.4188C139.583 22.5582 137.585 20.1236 134.678 20.1236C131.59 20.1236 129.774 22.5582 129.774 25.4188Z" fill="white"/>
<path d="M146.485 40.9392V17.3846H149.634L149.816 20.0018C151.027 18.0542 153.328 17.0803 155.447 17.0803C160.23 17.1412 163.5 20.6105 163.5 25.4796C163.5 30.3488 160.412 33.8789 155.447 33.8789C153.509 33.8789 151.027 33.1485 149.816 31.2009V41H146.485V40.9392ZM160.23 25.4187C160.23 22.3755 158.232 20.3061 155.144 20.3061C152.056 20.3061 150.118 22.5581 150.118 25.4187C150.118 28.2794 152.238 30.5313 155.144 30.5313C158.111 30.5313 160.23 28.4011 160.23 25.4187Z" fill="white"/>
<path d="M19.6943 14.8892H15.6375V20.4278H19.6943V14.8892Z" fill="#FFCB77"/>
<path d="M19.6943 23.4102H15.6375V38.3219H19.6943V23.4102Z" fill="#FFCB77"/>
<path d="M12.7311 20.4279H3.28529C1.77155 20.4279 0.5 19.2106 0.5 17.6281C0.5 16.1065 1.711 14.8284 3.28529 14.8284H12.7311V20.4279Z" fill="#FFCB77"/>
<path d="M12.731 38.3219C7.64485 38.3219 3.52747 34.1831 3.52747 29.0705V23.4102H12.731V38.3219Z" fill="#FFCB77"/>
<path d="M22.6007 20.4279H32.0465C33.5602 20.4279 34.8318 19.2106 34.8318 17.6281C34.8318 16.1065 33.6208 14.8284 32.0465 14.8284H22.6007V20.4279Z" fill="#FFCB77"/>
<path d="M22.6007 38.3219C27.6869 38.3219 31.8043 34.1831 31.8043 29.0705V23.4102H22.6007V38.3219Z" fill="#FFCB77"/>
<path d="M15.2742 12.2111L6.07062 9.59396C5.40457 9.41136 5.28347 8.43753 5.82842 8.07235L12.1256 3.62925C12.5494 3.32493 13.0944 3.50752 13.276 3.99443L16.243 10.9938C16.4852 11.6633 15.9402 12.3937 15.2742 12.2111Z" fill="#FFCB77"/>
<path d="M18.786 11.1765L24.175 0.464391C24.4777 -0.144252 25.2649 -0.144252 25.5676 0.403527L30.9566 9.47232C31.2593 10.0201 30.9566 10.6896 30.4116 10.7505L19.6337 12.4547C18.9677 12.5155 18.4833 11.7852 18.786 11.1765Z" fill="#FFCB77"/>
<path d="M147 5H164V8C164 9.10457 163.105 10 162 10H149C147.895 10 147 9.10457 147 8V5Z" fill="#FFD500"/>
<path d="M147 2C147 0.89543 147.895 0 149 0H162C163.105 0 164 0.895431 164 2V5H147V2Z" fill="#005BBB"/>
</svg>
