<svg xmlns="http://www.w3.org/2000/svg" xmlns:xlink="http://www.w3.org/1999/xlink" style="display:none">
  <symbol id="shield" viewBox="0 0 24 24" fill="currentColor">
    <path d="M20.5 6.1l-7.98-4a1 1 0 00-.9 0l-8.02 4a1 1 0 00-.54.77c-.02.1-1.15 9.74 8.54 15a1 1 0 00.97 0A16.06 16.06 0 0021.04 6.9a1 1 0 00-.54-.8z"/>
  </symbol>
  <symbol id="barcode" viewBox="0 0 24 24" fill="currentColor">
    <path d="M20 4H4a2 2 0 00-2 2v12c0 1.1.9 2 2 2h16a2 2 0 002-2V6a2 2 0 00-2-2zM4 18V6h16v12H4z"/>
    <path d="M6 8h2v8H6V8zm3 0h1v8H9V8zm8 0h1v8h-1V8zm-4 0h3v8h-3V8zm-2 0h1v8h-1V8z"/>
  </symbol>
  <symbol id="lightning" viewBox="0 0 24 24" fill="currentColor">
    <path d="M17.17 8H13l.8-4.83A1 1 0 0012.83 2H7.67a1 1 0 00-.99.83l-1.67 10A1 1 0 006 14h4v8l8.01-12.46A1 1 0 0017.17 8z"/>
  </symbol>
  <symbol id="donut-chart" viewBox="0 0 24 24" fill="currentColor">
    <path d="M13 6a6.2 6.2 0 015 5h4a10.12 10.12 0 00-9-9v4z"/>
    <path d="M18 13a6 6 0 01-5.95 4.95 6 6 0 01-6-6A6 6 0 0111 6V2a10.01 10.01 0 1011 11h-4z"/>
  </symbol>
  <symbol id="trophy" viewBox="0 0 24 24" fill="currentColor">
    <path d="M21 4h-3V3a1 1 0 00-1-1H7a1 1 0 00-1 1v1H3a1 1 0 00-1 1v3c0 4.31 1.8 6.91 4.82 7.01a6 6 0 004.18 2.9V20H9v2h6v-2h-2v-2.09a6 6 0 004.18-2.9C20.2 14.91 22 12.31 22 8V5a1 1 0 00-1-1zM4 8V6h2v6.83C4.22 12.08 4 9.3 4 8zm14 4.83V6h2v2c0 1.3-.22 4.08-2 4.83z"/>
  </symbol>
  <symbol id="box" viewBox="0 0 24 24" fill="currentColor">
    <path d="M2 3h20v4H2V3zm17 5H3v11c0 1.1.9 2 2 2h14a2 2 0 002-2V8h-2zm-3 6H8v-2h8v2z"/>
  </symbol>
  <symbol id="coin-stack" viewBox="0 0 24 24" fill="currentColor">
    <path d="M12 10c3.98 0 8-1.37 8-4s-4.02-4-8-4C8.02 2 4 3.37 4 6s4.02 4 8 4z"/>
    <path d="M4 10c0 2.63 4.02 4 8 4 3.98 0 8-1.37 8-4V8c0 2.63-4.02 4-8 4-3.98 0-8-1.37-8-4v2z"/>
    <path d="M4 14c0 2.63 4.02 4 8 4 3.98 0 8-1.37 8-4v-2c0 2.63-4.02 4-8 4-3.98 0-8-1.37-8-4v2z"/>
    <path d="M4 18c0 2.63 4.02 4 8 4 3.98 0 8-1.37 8-4v-2c0 2.63-4.02 4-8 4-3.98 0-8-1.37-8-4v2z"/>
  </symbol>
  <symbol id="logout" viewBox="0 0 24 24" fill="currentColor">
    <path d="M18 6H20V18H18zM10 18L10 13 16 13 16 11 10 11 10 6 4 12z"/>
  </symbol>
  <symbol id="person" viewBox="0 0 24 24" fill="currentColor">
    <path d="M7.5 6.5C7.5 8.981 9.519 11 12 11s4.5-2.019 4.5-4.5S14.481 2 12 2 7.5 4.019 7.5 6.5zM20 21h1v-1c0-3.859-3.141-7-7-7h-4c-3.86 0-7 3.141-7 7v1h1 1 14H20z"/>
  </symbol>
  <symbol id="card" viewBox="0 0 24 24" fill="currentColor">
    <path d="M20 4H4C2.897 4 2 4.897 2 6v2h20V6C22 4.897 21.103 4 20 4zM2 18c0 1.103.897 2 2 2h16c1.103 0 2-.897 2-2v-6H2V18zM5 15h6v2H5V15z"/>
  </symbol>
  <symbol id="buoy" viewBox="0 0 24 24" fill="currentColor">
    <path d="M12,2C6.486,2,2,6.486,2,12s4.486,10,10,10s10-4.486,10-10S17.514,2,12,2z M19.736,10h-3.16 C16.072,8.851,15.149,7.928,14,7.424V4.263C16.804,4.989,19.011,7.196,19.736,10z M12,15c-1.654,0-3-1.346-3-3s1.346-3,3-3 s3,1.346,3,3S13.654,15,12,15z M10,4.263v3.161C8.851,7.928,7.928,8.851,7.424,10h-3.16C4.989,7.196,7.196,4.989,10,4.263z M4.264,14h3.16c0.504,1.149,1.427,2.072,2.576,2.576v3.161C7.196,19.011,4.989,16.804,4.264,14z M14,19.737v-3.161 c1.149-0.504,2.072-1.427,2.576-2.576h3.16C19.011,16.804,16.804,19.011,14,19.737z"/>
  </symbol>
  <symbol id="wallet" viewBox="0 0 24 24" fill="currentColor">
    <path d="M14 9H22V15H14z"/>
    <path d="M20,3H5C3.346,3,2,4.346,2,6v12c0,1.654,1.346,3,3,3h15c1.103,0,2-0.897,2-2v-2h-8c-1.103,0-2-0.897-2-2V9 c0-1.103,0.897-2,2-2h8V5C22,3.897,21.103,3,20,3z"/>
  </symbol>
  <symbol id="contracts" viewBox="0 0 24 24" fill="currentColor">
    <path d="M3,5v14c0,1.104,0.896,2,2,2h14c1.104,0,2-0.896,2-2V5c0-1.104-0.896-2-2-2H5C3.896,3,3,3.896,3,5z M10,7h8v2h-8V7z M10,11 h8v2h-8V11z M10,15h8v2h-8V15z M6,7h2v2H6V7z M6,11h2v2H6V11z M6,15h2v2H6V15z"/>
  </symbol>
  <symbol id="gift" viewBox="0 0 34 34" fill="currentColor">
    <path d="M5.77407 17.1992H4.12607V30.3832C4.12607 31.2573 4.47333 32.0957 5.09144 32.7138C5.70956 33.3319 6.54791 33.6792 7.42206 33.6792H15.662V17.1992H5.77407ZM27.198 17.1992H18.958V33.6792H27.198C28.0722 33.6792 28.9105 33.3319 29.5286 32.7138C30.1468 32.0957 30.494 31.2573 30.494 30.3832V17.1992H27.198ZM28.5016 8.95922C28.7433 8.15794 28.8595 7.32406 28.846 6.48723C28.846 3.30659 26.2587 0.719238 23.078 0.719238C20.405 0.719238 18.6202 3.16157 17.4683 5.80331C16.3328 3.30659 14.4574 0.719238 11.5421 0.719238C8.36142 0.719238 5.77407 3.30659 5.77407 6.48723C5.77407 7.46943 5.90426 8.28189 6.1185 8.95922H0.830078V15.5512H15.662V12.2552H18.958V15.5512H33.79V8.95922H28.5016ZM9.07006 6.48723C9.07006 5.12433 10.1792 4.01523 11.5421 4.01523C13.0055 4.01523 14.3667 6.52843 15.1644 8.95922H10.7181C10.1017 8.95922 9.07006 8.95922 9.07006 6.48723ZM23.078 4.01523C24.4409 4.01523 25.55 5.12433 25.55 6.48723C25.55 8.95922 24.5184 8.95922 23.902 8.95922H19.8199C20.6604 6.36198 21.8816 4.01523 23.078 4.01523Z"/>      
  </symbol>
</svg>